<svg xmlns="http://www.w3.org/2000/svg" xmlns:xlink="http://www.w3.org/1999/xlink" width="500" zoomAndPan="magnify" viewBox="0 0 375 149.999998" height="200" preserveAspectRatio="xMidYMid meet" version="1.0"><defs><g/></defs><g fill="#f44a5d" fill-opacity="1"><g transform="translate(9.02573, 94.759495)"><g><path d="M 51.125 -50.0625 L 66.046875 -50.0625 L 66.046875 8.140625 L 51.125 8.140625 Z M 42.765625 -0.359375 C 42.765625 1.160156 42.679688 2.46875 42.515625 3.5625 C 42.347656 4.664062 41.976562 5.550781 41.40625 6.21875 C 40.84375 6.882812 40 7.367188 38.875 7.671875 C 37.757812 7.984375 36.273438 8.140625 34.421875 8.140625 L 11.640625 8.140625 C 9.785156 8.140625 8.296875 7.984375 7.171875 7.671875 C 6.054688 7.367188 5.210938 6.882812 4.640625 6.21875 C 4.066406 5.550781 3.695312 4.664062 3.53125 3.5625 C 3.363281 2.46875 3.28125 1.160156 3.28125 -0.359375 L 3.28125 -40.84375 C 3.28125 -42.363281 3.363281 -43.660156 3.53125 -44.734375 C 3.695312 -45.804688 4.066406 -46.6875 4.640625 -47.375 C 5.210938 -48.0625 6.054688 -48.5625 7.171875 -48.875 C 8.296875 -49.1875 9.785156 -49.34375 11.640625 -49.34375 L 34.421875 -49.34375 C 36.273438 -49.34375 37.757812 -49.1875 38.875 -48.875 C 40 -48.5625 40.84375 -48.0625 41.40625 -47.375 C 41.976562 -46.6875 42.347656 -45.804688 42.515625 -44.734375 C 42.679688 -43.660156 42.765625 -42.363281 42.765625 -40.84375 Z M 17.5 -0.640625 C 17.5 0.0234375 17.601562 0.488281 17.8125 0.75 C 18.03125 1.007812 18.472656 1.140625 19.140625 1.140625 L 26.921875 1.140625 C 27.585938 1.140625 28.023438 1.007812 28.234375 0.75 C 28.453125 0.488281 28.5625 0.0234375 28.5625 -0.640625 L 28.5625 -40.5625 C 28.5625 -41.226562 28.453125 -41.691406 28.234375 -41.953125 C 28.023438 -42.210938 27.585938 -42.34375 26.921875 -42.34375 L 19.140625 -42.34375 C 18.472656 -42.34375 18.03125 -42.210938 17.8125 -41.953125 C 17.601562 -41.691406 17.5 -41.226562 17.5 -40.5625 Z M 17.5 -0.640625 "/></g></g></g><g fill="#f44a5d" fill-opacity="1"><g transform="translate(80.419631, 94.759495)"><g><path d="M 2.421875 -49.34375 L 34.34375 -49.34375 L 34.34375 -42.34375 L 25.921875 -42.34375 L 25.921875 -28.34375 L 29.921875 -24.84375 L 34.28125 -24.84375 L 34.28125 -17.859375 L 22 -17.859375 L 18.421875 -22 L 14.921875 -17.859375 L 2.578125 -17.859375 L 2.578125 -24.84375 L 7 -24.84375 L 11 -28.34375 L 11 -42.34375 L 2.421875 -42.34375 Z M 67.484375 8.140625 L 10.921875 8.140625 L 3.28125 1.140625 L 3.28125 -14.640625 L 18.203125 -14.640625 L 18.203125 1.140625 L 67.484375 1.140625 Z M 29.0625 -37.625 L 36.703125 -37.625 L 36.703125 -50.0625 L 50.203125 -50.0625 L 50.203125 -10.21875 L 36.703125 -10.21875 L 36.703125 -30.640625 L 29.0625 -30.640625 Z M 53.984375 -50.0625 L 67.484375 -50.0625 L 67.484375 -10.21875 L 53.984375 -10.21875 Z M 53.984375 -50.0625 "/></g></g></g><g fill="#a0bf6b" fill-opacity="1"><g transform="translate(151.792371, 94.759495)"><g><path d="M 40.625 -17.921875 L 10.859375 -17.921875 L 3.28125 -24.84375 L 3.28125 -49.34375 L 40.625 -49.34375 Z M 3.28125 1.140625 L 20.78125 1.140625 L 25.484375 -3.140625 L 25.484375 -15.359375 L 40.421875 -15.359375 L 40.421875 -3.140625 L 45.125 1.140625 L 62.546875 1.140625 L 62.546875 8.140625 L 37.0625 8.140625 L 32.921875 3.5 L 28.84375 8.140625 L 3.28125 8.140625 Z M 47.5625 -50.0625 L 62.484375 -50.0625 L 62.484375 -38.421875 L 69.046875 -38.421875 L 69.046875 -31.421875 L 62.484375 -31.421875 L 62.484375 -10.421875 L 47.5625 -10.421875 Z M 16.78125 -24.921875 L 27.140625 -24.921875 L 27.140625 -42.34375 L 16.78125 -42.34375 Z M 16.78125 -24.921875 "/></g></g></g><g fill="#a0bf6b" fill-opacity="1"><g transform="translate(223.186272, 94.759495)"><g><path d="M 51.125 -50.0625 L 66.046875 -50.0625 L 66.046875 -17.859375 L 51.125 -17.859375 Z M 23.140625 3.28125 L 19 8.0625 L 4.78125 8.0625 L 4.78125 1.078125 L 11.703125 1.078125 L 16.421875 -3.640625 L 16.421875 -14.859375 L 29.921875 -14.859375 L 29.921875 -3.640625 L 36.203125 4.140625 L 42.34375 -3.640625 L 42.34375 -14.859375 L 55.84375 -14.859375 L 55.84375 -3.640625 L 60.546875 1.078125 L 67.484375 1.078125 L 67.484375 8.0625 L 53.265625 8.0625 L 49.125 3.28125 L 44.921875 8.0625 L 27.28125 8.0625 Z M 42.765625 -26.34375 C 42.765625 -24.820312 42.679688 -23.515625 42.515625 -22.421875 C 42.347656 -21.328125 41.976562 -20.445312 41.40625 -19.78125 C 40.84375 -19.113281 40 -18.625 38.875 -18.3125 C 37.757812 -18.007812 36.273438 -17.859375 34.421875 -17.859375 L 11.640625 -17.859375 C 9.785156 -17.859375 8.296875 -18.007812 7.171875 -18.3125 C 6.054688 -18.625 5.210938 -19.113281 4.640625 -19.78125 C 4.066406 -20.445312 3.695312 -21.328125 3.53125 -22.421875 C 3.363281 -23.515625 3.28125 -24.820312 3.28125 -26.34375 L 3.28125 -40.84375 C 3.28125 -42.363281 3.363281 -43.660156 3.53125 -44.734375 C 3.695312 -45.804688 4.066406 -46.6875 4.640625 -47.375 C 5.210938 -48.0625 6.054688 -48.5625 7.171875 -48.875 C 8.296875 -49.1875 9.785156 -49.34375 11.640625 -49.34375 L 34.421875 -49.34375 C 36.273438 -49.34375 37.757812 -49.1875 38.875 -48.875 C 40 -48.5625 40.84375 -48.0625 41.40625 -47.375 C 41.976562 -46.6875 42.347656 -45.804688 42.515625 -44.734375 C 42.679688 -43.660156 42.765625 -42.363281 42.765625 -40.84375 Z M 17.5 -26.640625 C 17.5 -25.972656 17.601562 -25.503906 17.8125 -25.234375 C 18.03125 -24.972656 18.472656 -24.84375 19.140625 -24.84375 L 26.921875 -24.84375 C 27.585938 -24.84375 28.023438 -24.972656 28.234375 -25.234375 C 28.453125 -25.503906 28.5625 -25.972656 28.5625 -26.640625 L 28.5625 -40.5625 C 28.5625 -41.226562 28.453125 -41.691406 28.234375 -41.953125 C 28.023438 -42.210938 27.585938 -42.34375 26.921875 -42.34375 L 19.140625 -42.34375 C 18.472656 -42.34375 18.03125 -42.210938 17.8125 -41.953125 C 17.601562 -41.691406 17.5 -41.226562 17.5 -40.5625 Z M 17.5 -26.640625 "/></g></g></g><g fill="#a0bf6b" fill-opacity="1"><g transform="translate(294.580172, 94.759495)"><g><path d="M 2.5 1.140625 L 13.859375 1.140625 L 18.5 -4.140625 L 18.5 -42.34375 L 2.5 -42.34375 L 2.5 -49.34375 L 32.34375 -49.34375 L 32.34375 -30.5625 L 36.703125 -30.5625 L 36.703125 -50.0625 L 50.203125 -50.0625 L 50.203125 8.140625 L 36.703125 8.140625 L 36.703125 -23.5625 L 32.34375 -23.5625 L 32.34375 -2.78125 L 22.921875 8.140625 L 2.5 8.140625 Z M 53.984375 -50.0625 L 67.484375 -50.0625 L 67.484375 8.140625 L 53.984375 8.140625 Z M 53.984375 -50.0625 "/></g></g></g></svg>